<?xml version="1.0" encoding="UTF-8" standalone="no"?><!DOCTYPE svg PUBLIC "-//W3C//DTD SVG 1.1//EN" "http://www.w3.org/Graphics/SVG/1.1/DTD/svg11.dtd"><svg width="100%" height="100%" viewBox="0 0 28 28" version="1.1" xmlns="http://www.w3.org/2000/svg" xmlns:xlink="http://www.w3.org/1999/xlink" xml:space="preserve" xmlns:serif="http://www.serif.com/" style="fill-rule:evenodd;clip-rule:evenodd;stroke-linejoin:round;stroke-miterlimit:2;"><path d="M13.424,3.126c0.423,1.164 1.5,2.015 2.785,2.108c-0.165,0.508 -0.254,1.049 -0.254,1.612c0,2.878 2.337,5.214 5.215,5.214c0.708,0 1.384,-0.141 2.001,-0.398c0.028,1.197 0.712,2.233 1.706,2.762c-0.227,5.806 -5.012,10.45 -10.873,10.45c-6.005,0 -10.881,-4.876 -10.881,-10.882c0,-5.811 4.565,-10.564 10.301,-10.866Zm2.554,14.396c1.092,-0 1.978,0.886 1.978,1.978c-0,1.092 -0.886,1.978 -1.978,1.978c-1.092,-0 -1.978,-0.886 -1.978,-1.978c-0,-1.092 0.886,-1.978 1.978,-1.978Zm-5.148,-2.498c0.689,-0 1.248,0.56 1.248,1.249c-0,0.69 -0.559,1.249 -1.248,1.249c-0.69,-0 -1.249,-0.559 -1.249,-1.249c-0,-0.689 0.559,-1.249 1.249,-1.249Zm8.928,-0.53c0.689,-0 1.249,0.56 1.249,1.249c0,0.689 -0.56,1.249 -1.249,1.249c-0.69,-0 -1.249,-0.56 -1.249,-1.249c0,-0.689 0.559,-1.249 1.249,-1.249Zm-11.817,-5.181c1.092,0 1.978,0.886 1.978,1.978c0,1.091 -0.886,1.978 -1.978,1.978c-1.091,0 -1.978,-0.887 -1.978,-1.978c0,-1.092 0.887,-1.978 1.978,-1.978Zm5.386,0.729c0.69,0 1.249,0.559 1.249,1.249c0,0.689 -0.559,1.249 -1.249,1.249c-0.689,0 -1.249,-0.56 -1.249,-1.249c0,-0.69 0.56,-1.249 1.249,-1.249Zm7.969,-1.981c0.596,0 1.081,0.484 1.081,1.08c0,0.597 -0.485,1.081 -1.081,1.081c-0.596,0 -1.081,-0.484 -1.081,-1.081c0,-0.596 0.485,-1.08 1.081,-1.08Zm-2.161,-2.903c0.596,0 1.08,0.484 1.08,1.08c0,0.597 -0.484,1.081 -1.08,1.081c-0.597,0 -1.081,-0.484 -1.081,-1.081c0,-0.596 0.484,-1.08 1.081,-1.08Zm3.984,-1.758c0.971,0 1.758,0.788 1.758,1.758c-0,0.97 -0.787,1.758 -1.758,1.758c-0.97,0 -1.757,-0.788 -1.757,-1.758c-0,-0.97 0.787,-1.758 1.757,-1.758Z" style="fill:#fff;"/></svg>