<?xml version="1.0" encoding="UTF-8" standalone="no"?><!DOCTYPE svg PUBLIC "-//W3C//DTD SVG 1.1//EN" "http://www.w3.org/Graphics/SVG/1.1/DTD/svg11.dtd"><svg width="100%" height="100%" viewBox="0 0 12 12" version="1.1" xmlns="http://www.w3.org/2000/svg" xmlns:xlink="http://www.w3.org/1999/xlink" xml:space="preserve" xmlns:serif="http://www.serif.com/" style="fill-rule:evenodd;clip-rule:evenodd;stroke-linejoin:round;stroke-miterlimit:2;"><rect id="github" x="-0" y="-0" width="12" height="12" style="fill:none;"/><path d="M5.999,0.148c-3.313,0 -5.999,2.686 -5.999,6c0,2.651 1.719,4.9 4.103,5.694c0.3,0.055 0.41,-0.131 0.41,-0.29c-0,-0.142 -0.005,-0.52 -0.008,-1.02c-1.669,0.362 -2.021,-0.805 -2.021,-0.805c-0.273,-0.693 -0.667,-0.877 -0.667,-0.877c-0.544,-0.372 0.042,-0.365 0.042,-0.365c0.602,0.042 0.919,0.618 0.919,0.618c0.535,0.917 1.404,0.652 1.746,0.499c0.054,-0.388 0.209,-0.652 0.381,-0.802c-1.333,-0.151 -2.733,-0.666 -2.733,-2.966c-0,-0.654 0.234,-1.19 0.617,-1.61c-0.061,-0.151 -0.267,-0.761 0.059,-1.587c-0,-0 0.504,-0.162 1.65,0.615c0.479,-0.134 0.992,-0.2 1.502,-0.202c0.51,0.002 1.023,0.068 1.502,0.202c1.146,-0.777 1.649,-0.615 1.649,-0.615c0.327,0.826 0.121,1.436 0.059,1.587c0.385,0.42 0.617,0.956 0.617,1.61c0,2.306 -1.403,2.813 -2.739,2.961c0.215,0.185 0.407,0.552 0.407,1.111c-0,0.802 -0.007,1.449 -0.007,1.646c-0,0.161 0.107,0.347 0.412,0.289c2.382,-0.795 4.1,-3.043 4.1,-5.693c-0,-3.314 -2.687,-6 -6.001,-6" style="fill:#4281a4;"/></svg>